
Format : AVI
Format/Info : Audio Video Interleave
File size : 1.09 GiB
Duration : 1h 50mn
Overall bit rate : 1 407 Kbps
Writing library : VirtualDub build 32842/release

Video
ID : 0
Format : MPEG-4 Visual
Format profile : Advanced Simple@L5
Format settings, BVOP : 2
Format settings, QPel : No
Format settings, GMC : No warppoints
Format settings, Matrix : Default (H.263)
Muxing mode : Packed bitstream
Codec ID : XVID
Codec ID/Hint : XviD
Duration : 1h 50mn
Bit rate : 1 269 Kbps
Width : 672 pixels
Height : 368 pixels
Display aspect ratio : 16:9
Frame rate : 25.000 fps
Color space : YUV
Chroma subsampling : 4:2:0
Bit depth : 8 bits
Scan type : Progressive
Compression mode : Lossy
Bits/(Pixel*Frame) : 0.205
Stream size : 1 002 MiB (90%)
Writing library : XviD 64

Audio
ID : 1
Format : MPEG Audio
Format version : Version 1
Format profile : Layer 3
Mode : Joint stereo
Mode extension : MS Stereo
Codec ID : 55
Codec ID/Hint : MP3
Duration : 1h 50mn
Bit rate mode : Constant
Bit rate : 128 Kbps
Channel(s) : 2 channels
Sampling rate : 44.1 KHz
Compression mode : Lossy
Stream size : 101 MiB (9%)
Alignment : Split accross interleaves
Interleave, duration : 40 ms (1.00 video frame)
Interleave, preload duration : 500 ms
Writing library : LAME3.98r
Encoding settings : -m j -V 4 -q 2 -lowpass 17 -b 128









 
http://www.imdb.com/title/tt0376136/



Ratings: 7.0/10 from 788 users Metascore: 57/100
Reviews: 12 user | 15 critic | 35 from Metacritic.com

American journalist Paul Kemp takes on a freelance job in Puerto Rico for a local newspaper during the 1950s and struggles to find a balance between island culture and the expatriates who live there.
Director:
Bruce Robinson
Writers:
Bruce Robinson (screenplay), Hunter S. Thompson (novel)
Stars:
Johnny Depp, Giovanni Ribisi and Aaron Eckhart

















Source Used




RELIZLAB/iLLUMiNATi ..........Thanks as ever


Vid has plenty flaws so check out the sample 1st ........Blocky in dark scenes and the vid can be quite dark tbh

Done what i can with it anyway but as said check that sample out


Enjoy





Greetz to IMAGiNE,Flawl3ss,BDK,Ez,CreWsaDe,TaRiQ786,ETRG,BHRG,iLLUMiNATi,ViSUALiSE,MiSTERE

